<svg width="131" height="1057" viewBox="0 0 131 1057" fill="none" xmlns="http://www.w3.org/2000/svg">
<g opacity="0.06">
<path d="M1.72472 851.216C1.73789 843.636 1.36925 836.045 1.80371 828.476C3.01495 807.54 21.6312 792.192 46.4485 791.606C61.2204 791.252 76.2029 790.344 88.7103 799.197C100.507 807.529 106.365 818.185 106.497 831.043C106.642 844.687 106.418 858.331 106.642 871.974C106.932 890.299 88.4207 911.876 60.7464 910.471C56.4413 910.25 52.0834 910.56 47.7651 910.537C21.6312 910.372 2.79114 895.09 1.76422 873.048C1.43508 865.778 1.72472 858.486 1.72472 851.216ZM78.6913 852.101C78.7571 852.101 78.8097 852.101 78.8756 852.101C78.8756 845.13 79.1126 838.147 78.8229 831.187C78.3358 819.579 71.7134 814.29 57.7447 813.903C38.2331 813.361 30.4259 817.256 29.7149 829.627C28.8723 844.145 29.0962 858.729 29.6491 873.269C29.9783 882.066 36.3768 887.123 46.8303 887.875C52.1888 888.263 57.7183 888.196 63.0241 887.543C72.1479 886.426 78.4016 882.343 78.6649 873.922C78.8624 866.663 78.6913 859.382 78.6913 852.101Z" fill="white"/>
<path d="M1.94852 606.071C1.94852 592.959 2.2645 579.824 1.8432 566.722C1.52722 557.029 8.18905 556.31 17.326 556.022C27.6216 555.701 28.9908 559.995 28.8723 567.021C28.5695 585.379 28.4642 603.759 29.083 622.105C29.1488 624.053 29.9914 625.989 31.071 627.914C32.4271 630.349 36.5742 630.282 37.7723 627.804C38.6018 626.089 39.2469 624.351 39.3654 622.603C40.0237 611.759 40.1158 600.848 39.4444 590.015C38.8651 580.51 44.9213 578.861 54.2821 578.574C64.6303 578.264 67.4346 582.513 67.2108 590.237C66.8948 601.103 67.4346 611.98 67.0923 622.835C66.8026 631.964 71.3711 636.081 82.3645 635.063C85.8929 634.731 89.5003 634.974 93.0682 634.941C99.7826 634.886 106.207 635.583 106.036 642.952C105.892 649.359 105.668 657.039 95.2931 657.26C67.6716 657.858 40.0237 657.183 12.4021 657.183C3.54157 657.183 2.79113 649.713 2.35666 645.387C1.01376 632.363 1.86953 619.184 1.86953 606.071C1.8827 606.071 1.92219 606.071 1.94852 606.071Z" fill="white"/>
<path d="M106.444 724.593C106.444 736.201 106.55 747.809 106.418 759.428C106.273 772.474 103.68 774.831 88.7762 774.963C65.1569 775.185 41.5377 775.085 17.9185 775.295C8.01791 775.384 1.90904 773.071 1.65889 763.334C1.40874 753.496 7.87309 752.456 16.9837 752.622C33.0195 752.91 49.0685 752.589 65.1174 752.91C74.6889 753.098 78.9282 749.867 78.7966 741.645C78.5069 722.546 78.7044 703.447 78.7571 684.348C78.7834 678.185 78.5333 671.878 89.3554 672.055C99.098 672.21 106.063 674.799 106.115 684.149C106.208 697.627 106.142 711.105 106.142 724.582C106.247 724.593 106.352 724.593 106.444 724.593Z" fill="white"/>
<path d="M22.566 1009.45L3.44943 1002.18C1.79056 1001.65 2.46965e-05 1002.68 2.47734e-05 1004.17L2.73842e-05 1054.86C2.74623e-05 1056.38 1.83006 1057.41 3.5021 1056.84L74.2939 1033.23C76.4004 1032.51 76.4004 1030 74.2939 1029.27L42.5778 1016.9C41.8932 1016.67 41.1164 1016.7 40.445 1016.99L27.4241 1022.67C25.6863 1023.44 23.6324 1022.33 23.7114 1020.68L23.8167 1011.37C23.8694 1010.45 23.5929 1009.78 22.566 1009.45Z" fill="white"/>
<path d="M2.1197 963.541L21.855 957.776C22.5133 957.588 22.9478 957.057 22.9215 956.481L22.6318 945.881C22.6055 944.94 23.7114 944.265 24.7647 944.586L59.0086 954.965C60.4568 955.408 60.4041 957.134 58.9296 957.51L1.13227 972.261C0.460822 972.427 2.31652e-05 972.947 2.31954e-05 973.533L2.42514e-05 994.038C2.42788e-05 994.569 0.368663 995.044 0.947953 995.266L86.8276 1027.09C87.2358 1027.24 87.7097 1027.24 88.1311 1027.09L94.0424 1024.84C95.2932 1024.37 95.2932 1022.89 94.0424 1022.4C93.6606 1022.25 93.2788 1022.11 92.8839 1021.99C92.0149 1021.7 91.0802 1021.59 90.1322 1021.56C85.7217 1021.4 82.167 1019.75 78.9151 1017.51C77.7828 1016.72 76.7954 1015.78 75.7027 1014.95C73.6883 1013.42 72.7404 1011.38 71.6871 1009.35C69.5674 1005.29 67.4478 1001.23 65.1964 997.224C64.0905 995.255 62.6028 993.44 60.4568 992.179C60.3778 992.134 60.2856 992.09 60.2066 992.057L57.4419 990.917C57.4024 990.906 57.3629 990.884 57.3234 990.873C56.7704 990.696 56.2174 990.519 55.6908 990.297C53.0972 989.235 50.3192 988.892 47.5018 988.671C46.6855 988.604 46.6987 989.025 46.4354 989.434C45.8034 990.408 45.1715 991.437 44.263 992.201C43.6179 992.743 42.5515 992.676 41.9459 992.09C41.4456 991.603 40.9321 991.127 40.445 990.629C39.1152 989.301 37.5485 988.527 35.1655 988.438C34.5336 988.416 33.6252 988.106 33.1907 987.73C29.7018 984.742 25.3834 983.581 20.7886 982.917C19.1166 982.673 18.9191 982.43 19.6037 981.102C20.6043 979.132 22.2368 977.782 24.8042 977.24C24.8963 977.218 24.9753 977.196 25.0675 977.174C26.1339 976.864 26.5025 975.746 25.7521 975.027C25.6468 974.927 25.5546 974.828 25.4493 974.728C25.0148 974.275 24.1854 973.6 24.3302 973.323C24.7778 972.482 25.8706 972.471 26.8712 972.615C28.7802 972.891 30.6892 973.19 32.5982 973.478C34.9681 973.821 37.1404 973.611 39.2469 972.427C41.1691 971.353 44.026 971.442 45.6717 970.114C45.9746 969.87 46.3959 969.716 46.8172 969.749C49.3186 969.926 51.7148 968.653 54.2294 968.399C57.613 968.067 61.0229 967.691 64.4197 967.691C67.5136 967.691 70.6207 968.089 73.6883 968.454C74.6757 968.576 75.6895 969.041 76.5189 969.55C78.3621 970.7 80.3765 971.232 82.6015 970.833C86.9725 970.059 91.3435 969.24 95.675 968.31C99.4667 967.503 103.219 966.518 106.984 965.61C107.392 965.511 107.761 965.367 108.09 965.212V944.962C108.09 944.398 107.669 943.9 107.037 943.701L2.13286 911.688C1.09277 911.367 2.00273e-05 912.02 2.00751e-05 912.95L2.26152e-05 962.269C2.26631e-05 963.198 1.07961 963.84 2.1197 963.541Z" fill="white"/>
<path d="M9.13293 540C6.94484 540 5.0895 539.315 3.56735 537.945C2.04519 536.494 1.28444 534.72 1.28444 532.625L1.28444 478.218C6.4217 478.218 10.1792 479.024 12.5576 480.636C14.936 482.168 16.1256 484.626 16.1256 488.011L16.1256 525.492H42.6678V492.726C47.805 492.726 51.5626 493.533 53.941 495.145C56.3193 496.676 57.5089 499.135 57.5089 502.52V525.492H89.7594C94.2307 525.492 97.465 526.66 99.4628 528.998C101.461 531.255 102.46 534.922 102.46 540H9.13293Z" fill="url(#paint0_linear_1_397)"/>
<path d="M102.46 461.367C102.46 465.639 101.508 469.508 99.6055 472.974C97.7028 476.44 94.9442 479.18 91.329 481.195C87.7139 483.21 83.4807 484.218 78.6288 484.218C73.6818 484.218 69.4004 483.17 65.7853 481.074C62.0751 478.898 59.269 475.956 57.3663 472.248C55.3684 468.541 54.3695 464.39 54.3695 459.795C54.3695 452.46 57.3182 446.294 63.2165 441.297L62.5033 440.693C60.7909 442.143 59.5544 443.312 58.7933 444.199H54.7974C50.6115 444.199 47.329 445.408 44.9507 447.826C42.4772 450.244 41.2407 453.629 41.2407 457.982C41.2407 461.851 42.1446 465.236 43.9522 468.137C45.6646 471.039 48.2332 473.377 51.658 475.15C50.9921 476.762 49.9457 478.132 48.5186 479.261C47.0916 480.309 45.5695 480.832 43.9522 480.832C41.1933 480.832 38.6247 479.744 36.2463 477.568C33.868 475.392 32.0126 472.49 30.6808 468.863C29.2538 465.155 28.5405 461.166 28.5405 456.894C28.5405 448.672 30.8709 442.304 35.5325 437.791C40.0989 433.196 46.3782 430.899 54.3695 430.899H91.329C95.2296 430.899 98.0838 431.907 99.8914 433.922C101.604 435.937 102.46 439.161 102.46 443.594H96.3234C94.611 442.143 93.3745 441.176 92.6135 440.693L92.0423 441.297C95.4671 443.876 98.0838 446.778 99.8914 450.002C101.604 453.145 102.46 456.934 102.46 461.367ZM90.4726 458.224C90.4726 453.79 89.4261 450.325 87.3332 447.826C85.2402 445.247 82.2916 443.957 78.4862 443.957C74.6808 443.957 71.7315 445.247 69.6386 447.826C67.4505 450.325 66.3565 453.75 66.3565 458.103C66.3565 462.052 67.4505 465.196 69.6386 467.533C71.7315 469.79 74.6808 470.919 78.4862 470.919C82.3867 470.919 85.3829 469.79 87.4758 467.533C89.4736 465.276 90.4726 462.173 90.4726 458.224Z" fill="url(#paint1_linear_1_397)"/>
<path d="M41.2407 416.262C32.7738 416.262 28.5405 411.99 28.5405 403.446H37.2448C38.9573 404.736 40.4319 405.663 41.6686 406.227L42.2399 405.623C37.7685 403.043 34.391 400.344 32.1078 397.522C29.7295 394.701 28.5405 391.356 28.5405 387.487C28.5405 380.475 32.6312 375.558 40.8128 372.737C36.9123 370.641 33.9155 368.062 31.8225 364.999C29.6344 361.936 28.5405 358.389 28.5405 354.359C28.5405 348.798 30.8709 344.445 35.5325 341.302C40.1941 338.078 46.1402 336.465 53.3704 336.465H92.1849C95.8 336.465 98.4167 337.553 100.034 339.73C101.651 341.906 102.46 345.251 102.46 349.765H54.6548C50.7543 349.765 47.71 350.491 45.5219 351.941C43.2387 353.392 42.0972 355.609 42.0972 358.591C42.0972 361.734 43.3812 364.395 45.9498 366.571C48.4233 368.667 52.134 369.714 57.081 369.714H92.1849C95.8 369.714 98.4167 370.802 100.034 372.979C101.651 375.155 102.46 378.46 102.46 382.893H54.6548C46.283 382.893 42.0972 385.795 42.0972 391.598C42.0972 395.064 43.5237 397.844 46.3777 399.94C49.2318 401.955 52.9425 402.963 57.5089 402.963H92.1849C95.8 402.963 98.4167 404.051 100.034 406.227C101.651 408.404 102.46 411.748 102.46 416.262H41.2407Z" fill="url(#paint2_linear_1_397)"/>
<path d="M20.4061 312.85C20.4061 315.51 19.4547 317.727 17.552 319.501C15.5541 321.274 13.0812 322.16 10.132 322.16C7.18288 322.16 4.75681 321.274 2.85413 319.501C0.951437 317.727 1.59322e-05 315.51 1.57953e-05 312.85C1.56583e-05 310.191 0.951437 307.974 2.85413 306.201C4.75681 304.428 7.18288 303.541 10.132 303.541C13.0812 303.541 15.5541 304.428 17.552 306.201C19.4547 307.974 20.4061 310.191 20.4061 312.85ZM38.8152 319.621C35.2001 319.621 32.5833 318.493 30.966 316.236C29.3488 313.979 28.5405 310.594 28.5405 306.08H92.1849C95.8 306.08 98.4167 307.208 100.034 309.465C101.651 311.722 102.46 315.107 102.46 319.621H38.8152Z" fill="url(#paint3_linear_1_397)"/>
<path d="M102.46 269.292C102.46 275.74 100.319 280.576 96.0381 283.8C91.7571 287.024 86.2392 288.637 79.4847 288.637H10.2747C6.65958 288.637 4.04349 287.549 2.4262 285.372C0.808915 283.116 1.40874e-05 279.69 1.38507e-05 275.095H78.9141C82.3389 275.095 84.8125 274.491 86.3347 273.282C87.7617 271.992 88.4749 269.937 88.4749 267.116C88.4749 263.972 87.571 261.111 85.7635 258.531C86.5245 257.806 87.5235 257.242 88.7602 256.839C89.9018 256.436 91.0433 256.235 92.1849 256.235C94.8487 256.235 97.2272 257.403 99.3202 259.741C101.413 261.998 102.46 265.181 102.46 269.292Z" fill="url(#paint4_linear_1_397)"/>
<path d="M131 243.212C131 246.113 129.859 248.37 127.575 249.982C125.292 251.594 121.962 252.441 117.586 252.521C118.062 250.264 118.3 248.33 118.3 246.718C118.3 243.494 117.206 240.955 115.018 239.101C112.925 237.166 108.977 235.111 103.173 232.935L97.4652 230.759L29.8249 254.335C29.4444 253.771 29.1587 252.884 28.9684 251.675C28.683 250.385 28.5405 249.297 28.5405 248.41C28.5405 246.315 29.1112 244.421 30.2528 242.728C31.2993 240.955 32.8215 239.746 34.8193 239.101L77.915 225.076L84.1938 226.89L84.6223 226.043L34.8193 209.48C32.8215 208.754 31.2993 207.545 30.2528 205.853C29.1112 204.16 28.5405 202.266 28.5405 200.17C28.5405 199.283 28.683 198.236 28.9684 197.027C29.1587 195.737 29.4444 194.81 29.8249 194.246L107.882 221.328C115.684 224.069 121.486 227.131 125.292 230.517C129.097 233.902 131 238.134 131 243.212Z" fill="url(#paint5_linear_1_397)"/>
<path d="M16.2682 125.214L16.2682 154.594C6.27908 154.594 1.28442 150.684 1.28442 142.866L1.28442 81.4468C6.23141 81.4468 9.98896 82.4542 12.5576 84.4692C15.0311 86.4037 16.2682 89.3058 16.2682 93.1748L16.2682 110.706H89.3314C93.5173 110.706 96.7517 111.955 99.0349 114.454C101.318 116.952 102.46 120.539 102.46 125.214H16.2682Z" fill="url(#paint6_linear_1_397)"/>
<path d="M102.46 37.9638C102.46 41.5103 100.557 43.8881 96.752 45.0971L1.71234 76.0486C1.23667 75.3232 0.855975 74.3562 0.57057 73.1472C0.190032 71.9381 3.32935e-06 70.8097 3.27538e-06 69.7619C3.13009e-06 66.9408 0.761396 64.6028 2.28355 62.749C3.71056 60.8145 5.80344 59.4043 8.56234 58.5177L73.7764 38.8104L82.3388 41.3491L82.9093 40.1402L8.56234 17.5309C2.85427 15.6771 2.94742e-07 11.8891 0 6.16632C-4.98152e-08 5.1991 0.190028 4.15082 0.570566 3.0224C0.855971 1.81335 1.23667 0.80603 1.71234 0L96.752 30.8305C98.5595 31.3947 99.986 32.3214 101.032 33.611C101.984 34.8201 102.46 36.2712 102.46 37.9638Z" fill="url(#paint7_linear_1_397)"/>
</g>
<defs>
<linearGradient id="paint0_linear_1_397" x1="-10213.6" y1="6068.57" x2="-10190.9" y2="5608.88" gradientUnits="userSpaceOnUse">
<stop stop-color="white"/>
<stop offset="1" stop-color="#D6D6D6"/>
</linearGradient>
<linearGradient id="paint1_linear_1_397" x1="-10213.6" y1="6068.57" x2="-10190.9" y2="5608.88" gradientUnits="userSpaceOnUse">
<stop stop-color="white"/>
<stop offset="1" stop-color="#D6D6D6"/>
</linearGradient>
<linearGradient id="paint2_linear_1_397" x1="-10213.6" y1="6068.57" x2="-10190.9" y2="5608.88" gradientUnits="userSpaceOnUse">
<stop stop-color="white"/>
<stop offset="1" stop-color="#D6D6D6"/>
</linearGradient>
<linearGradient id="paint3_linear_1_397" x1="-10213.6" y1="6068.57" x2="-10190.9" y2="5608.88" gradientUnits="userSpaceOnUse">
<stop stop-color="white"/>
<stop offset="1" stop-color="#D6D6D6"/>
</linearGradient>
<linearGradient id="paint4_linear_1_397" x1="-10213.6" y1="6068.57" x2="-10190.9" y2="5608.88" gradientUnits="userSpaceOnUse">
<stop stop-color="white"/>
<stop offset="1" stop-color="#D6D6D6"/>
</linearGradient>
<linearGradient id="paint5_linear_1_397" x1="-10213.6" y1="6068.57" x2="-10190.9" y2="5608.88" gradientUnits="userSpaceOnUse">
<stop stop-color="white"/>
<stop offset="1" stop-color="#D6D6D6"/>
</linearGradient>
<linearGradient id="paint6_linear_1_397" x1="-10213.6" y1="6068.57" x2="-10190.9" y2="5608.88" gradientUnits="userSpaceOnUse">
<stop stop-color="white"/>
<stop offset="1" stop-color="#D6D6D6"/>
</linearGradient>
<linearGradient id="paint7_linear_1_397" x1="-10213.6" y1="6068.57" x2="-10190.9" y2="5608.88" gradientUnits="userSpaceOnUse">
<stop stop-color="white"/>
<stop offset="1" stop-color="#D6D6D6"/>
</linearGradient>
</defs>
</svg>
