<svg width="310" height="196" viewBox="0 0 310 196" fill="none" xmlns="http://www.w3.org/2000/svg">
<g opacity="0.11">
<path d="M101.382 40.9189L116.882 6.25481C118.015 3.24677 115.821 0 112.636 0H4.5572C1.32499 0 -0.86914 3.31838 0.334092 6.35029L50.6811 134.717C52.2146 138.537 57.5702 138.537 59.1273 134.717L85.504 77.2063C85.9995 75.9649 85.9287 74.5564 85.3153 73.3388L73.1886 49.7281C71.5607 46.5769 73.92 42.8526 77.4353 42.9959L97.3004 43.1868C99.2586 43.2823 100.674 42.781 101.382 40.9189Z" fill="black"/>
<path d="M199.268 3.84361L211.56 39.6297C211.961 40.8234 213.093 41.6112 214.32 41.5635L236.922 41.0382C238.927 40.9905 240.366 42.9958 239.682 44.9057L217.552 107C216.608 109.626 212.928 109.531 212.126 106.857L180.677 2.05311C180.323 0.835571 179.214 0 177.964 0H134.246C133.114 0 132.099 0.668453 131.627 1.71888L63.7745 157.445C63.4442 158.185 63.4442 159.044 63.7745 159.808L68.5638 170.527C69.5783 172.795 72.7397 172.795 73.7778 170.527C74.0845 169.835 74.3912 169.143 74.6507 168.426C75.2642 166.851 75.5001 165.156 75.5709 163.437C75.9012 155.439 79.4165 148.993 84.2058 143.097C85.8809 141.044 87.8863 139.253 89.6557 137.272C92.9116 133.619 97.2762 131.9 101.594 129.99C110.252 126.147 118.911 122.303 127.451 118.221C131.651 116.215 135.52 113.518 138.21 109.626C138.304 109.483 138.398 109.316 138.469 109.173L140.899 104.159C140.923 104.088 140.97 104.016 140.994 103.944C141.371 102.942 141.749 101.939 142.22 100.984C144.485 96.2811 145.217 91.2439 145.689 86.135C145.83 84.6548 144.934 84.6787 144.061 84.2012C141.985 83.0553 139.79 81.9094 138.162 80.2621C137.006 79.0923 137.148 77.1586 138.398 76.0604C139.437 75.1532 140.451 74.2222 141.513 73.3388C144.344 70.9276 145.995 68.0867 146.184 63.7657C146.231 62.6197 146.892 60.9725 147.694 60.1847C154.064 53.8582 156.541 46.0278 157.957 37.696C158.476 34.6641 158.995 34.306 161.826 35.5474C166.026 37.3617 168.904 40.3221 170.06 44.9774C170.107 45.1445 170.154 45.2877 170.201 45.4548C170.862 47.3886 173.245 48.057 174.778 46.6962C174.991 46.5053 175.203 46.3381 175.415 46.1472C176.383 45.3593 177.822 43.8553 178.412 44.1179C180.205 44.9296 180.228 46.9111 179.922 48.7255C179.332 52.1871 178.695 55.6487 178.081 59.1103C177.35 63.4075 177.798 67.3467 180.323 71.1664C182.611 74.6519 182.423 79.8324 185.254 82.8166C185.773 83.3656 186.103 84.1296 186.032 84.8936C185.655 89.4295 188.368 93.7744 188.911 98.3342C189.618 104.47 190.421 110.653 190.421 116.812C190.421 122.422 189.571 128.057 188.793 133.619C188.533 135.41 187.542 137.248 186.457 138.752C184.003 142.094 182.871 145.747 183.72 149.781C185.372 157.707 187.118 165.633 189.099 173.487C190.822 180.363 192.921 187.167 194.856 193.995C195.068 194.735 195.375 195.403 195.705 196H238.88C240.083 196 241.145 195.236 241.57 194.09L309.824 3.86747C310.508 1.98148 309.116 0 307.134 0H201.981C199.999 0 198.631 1.95761 199.268 3.84361Z" fill="black"/>
</g>
</svg>
