<svg width="466" height="248" viewBox="0 0 466 248" fill="none" xmlns="http://www.w3.org/2000/svg">
<g opacity="0.1">
<path d="M152.4 51.7749L175.701 7.91425C177.403 4.10816 174.105 0 169.317 0H6.8505C1.99176 0 -1.30651 4.19877 0.502216 8.03506L76.1851 170.458C78.4904 175.292 86.541 175.292 88.8817 170.458L128.532 97.6896C129.277 96.1189 129.17 94.3367 128.248 92.7961L110.019 62.9213C107.572 58.934 111.118 54.2217 116.403 54.4029L146.264 54.6446C149.208 54.7654 151.336 54.131 152.4 51.7749Z" fill="url(#paint0_linear_1_229)"/>
<path d="M299.544 4.86334L318.022 50.1437C318.625 51.6541 320.327 52.6509 322.171 52.5905L356.147 51.9259C359.162 51.8655 361.325 54.4029 360.296 56.8195L327.03 135.388C325.611 138.711 320.079 138.59 318.873 135.207L271.598 2.59781C271.066 1.05725 269.399 0 267.519 0H201.802C200.1 0 198.575 0.845797 197.866 2.17491L95.8674 199.216C95.3709 200.152 95.3709 201.239 95.8674 202.206L103.067 215.769C104.592 218.639 109.344 218.639 110.905 215.769C111.366 214.893 111.827 214.017 112.217 213.111C113.139 211.117 113.494 208.972 113.6 206.798C114.097 196.678 119.381 188.522 126.58 181.061C129.098 178.463 132.113 176.198 134.773 173.691C139.667 169.069 146.228 166.894 152.718 164.477C165.734 159.614 178.75 154.751 191.588 149.585C197.901 147.048 203.717 143.635 207.76 138.711C207.902 138.53 208.044 138.318 208.15 138.137L211.803 131.793C211.839 131.703 211.91 131.612 211.945 131.522C212.513 130.253 213.08 128.984 213.789 127.776C217.194 121.825 218.294 115.451 219.003 108.987C219.216 107.114 217.868 107.144 216.556 106.54C213.435 105.09 210.137 103.64 207.689 101.556C205.952 100.076 206.164 97.6292 208.044 96.2397C209.605 95.0919 211.13 93.9138 212.726 92.7961C216.981 89.7452 219.464 86.1506 219.748 80.6831C219.819 79.2331 220.812 77.1489 222.017 76.152C231.593 68.1471 235.317 58.2392 237.445 47.697C238.225 43.8607 239.005 43.4075 243.261 44.9783C249.574 47.274 253.901 51.0198 255.639 56.9101C255.709 57.1216 255.78 57.3028 255.851 57.5143C256.844 59.961 260.426 60.8068 262.732 59.085C263.051 58.8434 263.37 58.6319 263.689 58.3903C265.143 57.3934 267.307 55.4904 268.193 55.8227C270.889 56.8497 270.924 59.3569 270.463 61.6526C269.576 66.0326 268.619 70.4127 267.697 74.7927C266.597 80.23 267.271 85.2141 271.066 90.0473C274.506 94.4575 274.222 101.012 278.478 104.788C279.258 105.483 279.755 106.45 279.648 107.416C279.081 113.156 283.16 118.653 283.975 124.423C285.039 132.186 286.245 140.01 286.245 147.803C286.245 154.902 284.968 162.031 283.798 169.069C283.408 171.335 281.918 173.66 280.287 175.563C276.598 179.792 274.896 184.414 276.173 189.519C278.655 199.548 281.28 209.577 284.259 219.515C286.848 228.214 290.004 236.823 292.912 245.463C293.232 246.399 293.693 247.245 294.189 248H359.091C360.899 248 362.495 247.033 363.134 245.583L465.735 4.89353C466.763 2.50717 464.671 0 461.692 0H303.623C300.644 0 298.587 2.47698 299.544 4.86334Z" fill="url(#paint1_linear_1_229)"/>
</g>
<defs>
<linearGradient id="paint0_linear_1_229" x1="233" y1="0" x2="233" y2="248" gradientUnits="userSpaceOnUse">
<stop stop-color="#999999"/>
<stop offset="1" stop-color="white"/>
</linearGradient>
<linearGradient id="paint1_linear_1_229" x1="233" y1="0" x2="233" y2="248" gradientUnits="userSpaceOnUse">
<stop stop-color="#999999"/>
<stop offset="1" stop-color="white"/>
</linearGradient>
</defs>
</svg>
